<?xml version="1.0" encoding="UTF-8"?>
<svg width="24px" height="24px" viewBox="0 0 40 57" version="1.1" xmlns="http://www.w3.org/2000/svg" xmlns:xlink="http://www.w3.org/1999/xlink">
    <!-- Generator: Sketch 55.2 (78181) - https://sketchapp.com -->
    <title>Logo SAQ / Burgundy </title>
    <desc>Created with Sketch.</desc>
    <g id="900-Panier" stroke="none" stroke-width="1" fill="none" fill-rule="evenodd">
        <g id="950_Checkout_Footer_checkout" transform="translate(-1306.000000, -1596.000000)">
            <g id="Logo-SAQ-/-Black" transform="translate(1306.000000, 1596.000000)">
                <g id="Logo-SAQ-/-Burgundy-+-grey">
                    <polygon id="Path_10394" fill="#343232" fill-rule="nonzero" points="0.593837223 0 0.593837223 38.3479749 38.0055822 38.3479749 38.0055822 0"></polygon>
                    <path d="M15.6612641,45.5981701 L17.4607883,50.2405432 L13.8328706,50.2405432 L15.6612641,45.5981701 Z M24.6428465,54.8228102 C24.3470455,54.83494 24.0557601,54.7457024 23.8152578,54.5692719 C23.572182,54.3697524 23.3839205,54.1091799 23.2688783,53.8130285 L23.0988697,53.4261641 L22.8796764,52.8677242 L18.9705495,43.1414717 L14.7716598,43.1414717 L15.2431929,44.2758369 L11.2634965,53.8348852 C11.0682395,54.4567193 10.4916801,54.8695322 9.85317421,54.8446669 L9.50139556,54.8446669 L9.50139556,55.7036371 C9.74679388,55.6620132 9.9941081,55.6331978 10.2423761,55.6173029 C10.8354457,55.5568326 11.3700637,55.5265974 11.8462301,55.5265974 C12.3223965,55.5265974 12.8655684,55.5568326 13.4757458,55.6173029 C13.7172507,55.629349 13.9576723,55.6581938 14.1953416,55.7036371 L14.1953416,54.8446669 C14.0464923,54.8719229 13.8952724,54.8832767 13.744124,54.8785449 C12.8702018,54.8785449 12.4332407,54.5761932 12.4332407,53.9714899 C12.4563949,53.6022364 12.547444,53.240753 12.7016189,52.9059735 L13.4746765,51.0405001 L17.8061515,51.0405001 L18.5257474,52.8240107 L18.6080785,53.0174429 L18.7609793,53.4731561 C18.8093012,53.6112988 18.8370544,53.7560745 18.8433105,53.9026411 C18.8519396,54.1777508 18.7183105,54.4372088 18.4915318,54.5856645 C18.174243,54.7675675 17.8119976,54.8511091 17.4490267,54.8260887 C17.3269403,54.8423999 17.2032959,54.8423999 17.0812095,54.8260887 L17.0812095,55.6861517 L17.9087982,55.6085602 C18.312717,55.5666126 18.7185253,55.5465492 19.1245195,55.5484542 L21.1988374,55.5484542 C22.5311054,55.5484542 23.7785474,55.6071031 24.9411634,55.724401 L24.9411634,54.8610595 L24.6428465,54.8228102 Z" id="Path_10395" fill="#343232" fill-rule="nonzero"></path>
                    <path d="M33.9759209,53.5537487 L33.3515223,52.8992137 L32.9298081,52.8281378 C32.3318572,53.0831205 31.7048687,53.2679438 31.0620609,53.378711 L30.7079082,53.4328136 L30.8975161,53.6333113 L30.8975161,53.6333113 C31.0727586,53.6516031 31.2436419,53.6982117 31.4031373,53.7712198 C31.5941648,53.8555118 31.7629747,53.9810327 31.8967718,54.1382686 L32.318486,54.5551767 L32.1081737,54.5551767 C30.9750854,54.5512167 29.9570246,53.8804265 29.532121,52.8578412 C28.997332,51.7722501 28.7383404,50.5774479 28.7769584,49.37406 C28.7365683,48.0409492 28.9273991,46.7107525 29.3414234,45.4394242 C29.8332417,44.0957002 30.600391,43.4238383 31.6428715,43.4238383 C32.7493197,43.4673174 33.7130167,44.1719994 34.0641867,45.1943714 C34.6138953,46.307505 34.8853558,47.5314329 34.8563991,48.7662018 C34.9704925,50.3488537 34.7006076,51.9354426 34.0685455,53.397806 L34.0216883,53.4731253 L33.9759209,53.5537487 Z M35.3249705,54.9094955 L35.3794555,54.8882788 C36.0967847,54.5743444 36.7495765,54.1361805 37.3060465,53.5951213 C38.5626264,52.3885451 39.2454529,50.7265067 39.1901392,49.0091329 C39.2115939,47.4930605 38.6436987,46.0251047 37.6002658,44.8994593 C36.4775811,43.6992181 34.9622378,42.914943 33.3122931,42.6801931 C32.8129389,42.5907727 32.3064249,42.5446226 31.7986987,42.5422846 C31.4887769,42.5429905 31.1791535,42.5610545 30.8713633,42.5963872 C30.5784878,42.6274028 30.2874966,42.6734363 29.9996027,42.7342957 C28.3859718,42.9932215 26.9045522,43.761463 25.7835502,44.920676 C24.8015368,46.0648408 24.2915734,47.5235778 24.3527731,49.0133763 C24.2741189,50.821421 25.0507147,52.5648885 26.4602544,53.744699 C28.0816953,54.9832278 30.1101614,55.6060338 32.1681073,55.4971979 C32.4497963,55.5040615 32.7316326,55.4916546 33.0115357,55.4600687 L33.1510174,55.4600687 L33.5008113,55.8356042 L33.8931036,56.2525122 L34.3148178,56.3235881 L37.0804785,55.8143875 L36.8363855,55.5555438 L36.7601064,55.5555438 C36.6748,55.5788392 36.5870722,55.5927173 36.4985782,55.5969163 C36.0842309,55.5977082 35.6924929,55.4130904 35.43612,55.0962024 L35.2715751,54.925408 L35.3249705,54.9094955 Z" id="Path_10396" fill="#343232" fill-rule="nonzero"></path>
                    <path d="M9.49575056,51.292344 C9.50327723,51.4156231 9.50327723,51.539278 9.49575056,51.6625571 C9.52172932,52.7886973 9.05230154,53.8651765 8.221892,54.5837355 C6.02750027,56.5432361 2.37682086,55.3931658 2.18600419,55.3504489 L1.92284493,55.2814447 C1.69533274,55.2299654 1.18893465,55.2080593 1.18893465,55.5486992 L0.479138567,55.5486992 L0,51.7359425 L0.811495079,51.7359425 L0.909000302,52.089726 C1.15908998,53.4420582 2.17918008,54.4946882 3.47663783,54.7392688 C3.69976285,54.7849017 3.92657188,54.8080095 4.15393217,54.808273 C4.57006061,54.8237718 4.97981001,54.6981193 5.32189796,54.4501083 C5.51528491,54.2997352 5.66778519,54.0992682 5.76434101,53.8685013 C5.87132117,53.637491 5.92823926,53.3846835 5.93104349,53.1280751 C5.93702649,52.7523413 5.81641795,52.3863617 5.59029943,52.0941073 C5.31612081,51.7547969 4.99150393,51.4637476 4.62887697,51.2321022 C4.43386652,51.1028562 3.33090422,50.4434826 2.98177262,50.2068968 C2.5340567,49.9157903 2.10083693,49.6010293 1.68379987,49.2638392 C1.42192895,49.0478326 1.18386686,48.8020689 0.974003783,48.5310802 C0.719805889,48.2093722 0.524668026,47.8413848 0.398408437,47.4456329 C0.0878625843,46.5041406 0.147822233,45.4723595 0.565110914,44.5770292 C0.80841751,44.056389 1.17735136,43.6109432 1.63557148,43.2845693 C1.99563504,43.0403887 2.38958528,42.8556677 2.80353726,42.7369168 C3.30363146,42.5996054 3.81934976,42.5343782 4.3363613,42.5430478 C5.19194662,42.5425649 6.04187247,42.6879609 6.85262511,42.9735027 C7.06055419,43.0452078 7.27536276,43.0929546 7.49322394,43.1158923 C7.86646974,43.1158923 8.02478467,42.9724074 7.96816873,42.6854375 L8.66223817,42.6854375 L8.92539743,46.2002712 L8.16317918,46.2002712 C8.1472939,46.0856067 8.12024359,45.9729362 8.08244905,45.8640125 C7.74493802,44.6776288 6.80959917,43.781737 5.64901226,43.5332035 C5.40224808,43.4690713 5.14833749,43.4399664 4.89413311,43.4466745 C4.61313313,43.4468322 4.33577415,43.5130942 4.08263803,43.6405434 C3.69844643,43.8296528 3.4592115,44.2398793 3.47454095,44.6832738 C3.48131499,45.0399984 3.62800405,45.3781682 3.88028849,45.6186642 C4.16790318,45.8855848 4.47575569,46.1277099 4.80082166,46.3426608 C4.97905702,46.4631444 5.74966281,46.9505551 6.01806428,47.1181367 C7.00846636,47.6524931 7.91641381,48.3392447 8.711515,49.155404 C9.18221799,49.7634222 9.45672761,50.5114252 9.49575056,51.292344 L9.49575056,51.292344 Z" id="Path_10397" fill="#343232" fill-rule="nonzero"></path>
                    <polygon id="Rectangle_2594" fill="#FFFFFF" fill-rule="nonzero" points="13.6582561 29.9593554 24.9411634 29.9593554 24.9411634 32.3561038 13.6582561 32.3561038"></polygon>
                    <polygon id="Path_10398" fill="#FFFFFF" fill-rule="nonzero" points="30.2856984 26.9634198 20.7852834 26.9634198 20.7852834 22.3030757 25.5354909 22.3030757 25.5354909 10.6522152 13.6577658 10.6522152 13.6577658 22.3030757 18.412386 22.3030757 18.412386 26.9634198 8.90755834 26.9634198 8.90755834 5.99187108 30.2856984 5.99187108"></polygon>
                </g>
            </g>
        </g>
    </g>
</svg>