<svg xmlns="http://www.w3.org/2000/svg" version="1.1" xmlns:xlink="http://www.w3.org/1999/xlink" xmlns:svgjs="http://svgjs.dev/svgjs" viewBox="0 0 1920 1080"><rect width="1920" height="1080" fill="#000000"></rect><g transform="matrix(1.15,0,0,1.15,-135.04848861694336,-81)"><path d="M0,-1080C2.74908856834773,-1015.8378026227392,32.327195832584664,-858.019361142185,16.49453141008638,-695.0268157364351C0.6618669875880983,-532.0342703306852,-101.2954114479168,-262.2468536890583,-94.9959865349897,-102.04472756550086C-88.69656162206259,58.1573985580566,34.89325399119467,124.37043134189108,54.291080887649,266.18594100490964C73.68890778410334,408.0014506679282,37.88416155806334,607.5247545016571,21.390974843736274,748.8483304126105C4.897788129409207,890.1719063235639,-21.31955867915472,965.0167737058895,-44.6680393983134,1114.1273964706302C-68.01652011747207,1263.2380192353708,-126.14458270426802,1469.1999664128264,-118.69990947121579,1643.5120670010547C-111.25523623816356,1817.824167589283,-19.783318245202633,2073.9186778335093,0,2160L 1920 2160 L 1920 -1080 Z" fill="url(&quot;#SvgjsLinearGradient1000&quot;)"></path><path d="M320,-1080C305.65935876704896,-992.8377030759257,229.90954273786076,-724.9587377553852,233.9561526022939,-557.0262184555543C238.00276246672706,-389.09369915572336,329.85494617101824,-239.15949634774182,344.2796591865989,-72.40488420101445C358.70437220217957,94.34972794571291,329.8556466963648,264.67683612504266,320.50443069577796,443.50145442480994C311.15321469519114,622.3260727245772,308.1553895113243,792.6974920628634,288.1723631830781,1000.5428255975894C268.18933685483194,1208.3881591323154,195.30166659014705,1497.3305932327644,200.6062727263007,1690.573455633166C205.91087886245433,1883.8163180335678,300.10104545438344,2081.7622426055277,320,2160L 1920 2160 L 1920 -1080 Z" fill="url(&quot;#SvgjsLinearGradient1001&quot;)"></path><path d="M640,-1080C645.9773567971072,-986.1365980885238,665.6324791139092,-703.7677468745961,675.864140782643,-516.8195885311425C686.0958024513767,-329.8714301876888,722.9414071502517,-119.69493029985128,701.3899700124027,41.68895006072188C679.8385328745537,203.07283042129504,535.519667731296,284.06009941853347,546.555517955549,451.48369363229654C557.5913681798021,618.9072878460596,745.4914350182369,843.1889727246003,767.605071357921,1046.2305153433006C789.7187076976052,1249.2720579620009,700.5048478866408,1484.1047019017149,679.237335993654,1669.7329493444981C657.9698241006672,1855.3611967872814,646.5395559989423,2078.2888248907498,640,2160L 1920 2160 L 1920 -1080 Z" fill="url(&quot;#SvgjsLinearGradient1002&quot;)"></path><path d="M960,-1080C973.1513283081769,-1021.3506910268837,1030.1584763371393,-890.7226346994651,1038.9079698490614,-728.1041461613023C1047.6574633609835,-565.4856576231396,1005.1236515485067,-263.92453994780635,1012.4969610715332,-104.28906877102366C1019.8702705945597,55.346402405758994,1086.690592731539,90.54708722996727,1083.1478269872202,229.70868089939358C1079.6050612429015,368.8702745688199,1000.9429980408805,569.8032601796696,991.2403666056209,730.6804932455341C981.5377351703613,891.5577263113986,1037.0161017117653,1047.208163367604,1024.9320383756628,1194.9720792945807C1012.8479750395605,1342.7359952215575,929.5579929849507,1456.4260020231577,918.7359865890069,1617.2639888073943C907.913980193063,1778.101975591631,953.1226644315011,2069.5439981345658,960,2160L 1920 2160 L 1920 -1080 Z" fill="url(&quot;#SvgjsLinearGradient1003&quot;)"></path><path d="M1280,-1080C1282.2846499573625,-1017.0817602910378,1307.51046352596,-855.3681921165856,1293.7078997441743,-702.4905617462268C1279.9053359623886,-549.612931375868,1183.884598647688,-327.74641999161076,1197.1846173092865,-162.73421777784716C1210.484635970885,2.2779844359164656,1379.2046252784678,128.59516766553,1373.5080117137654,287.58265153635494C1367.811398149063,446.5701354071799,1173.7523750143696,634.3968092245111,1163.0049359210727,791.1906854471026C1152.2574968277759,947.9845616696941,1278.2924231688783,1064.5453382701678,1309.0233771539838,1228.3459088719037C1339.7543311390893,1392.1464794736396,1352.2278893573698,1618.7184272028353,1347.3906598317058,1773.994109057518C1342.5534303060417,1929.2697909122007,1291.2317766386177,2095.6656848429197,1280,2160L 1920 2160 L 1920 -1080 Z" fill="url(&quot;#SvgjsLinearGradient1004&quot;)"></path><path d="M1600,-1080C1599.6902876748704,-997.0022652404539,1589.9287509718938,-776.6699747047304,1598.1417260492228,-582.0135914427235C1606.3547011265518,-387.3572081807166,1653.3825566135915,-98.74615458449546,1649.2778504639748,87.93829957204127C1645.173144314358,274.622753728578,1588.3264944136567,366.82527398430534,1573.5134891515231,538.0931334964969C1558.7004838893895,709.3609930086884,1561.456476651454,915.3488001103125,1560.3998188911733,1115.5454566451904C1559.3431611308924,1315.7421131800684,1560.5735124050345,1565.1973154799625,1567.173542589839,1739.2730727057642C1573.7735727746433,1913.348829931566,1594.5289237649731,2089.878845450961,1600,2160L 1920 2160 L 1920 -1080 Z" fill="url(&quot;#SvgjsLinearGradient1005&quot;)"></path></g><defs><linearGradient x1="0.1" y1="0" x2="0" y2="1" id="SvgjsLinearGradient1000"><stop stop-color="#000000" offset="0"></stop><stop stop-color="#000000" offset="0"></stop></linearGradient><linearGradient x1="0.1" y1="0" x2="0" y2="1" id="SvgjsLinearGradient1001"><stop stop-color="#2a2a2a" offset="0"></stop><stop stop-color="#2a2a2a" offset="0.16666666666666666"></stop></linearGradient><linearGradient x1="0.1" y1="0" x2="0" y2="1" id="SvgjsLinearGradient1002"><stop stop-color="#555555" offset="0"></stop><stop stop-color="#555555" offset="0.3333333333333333"></stop></linearGradient><linearGradient x1="0.1" y1="0" x2="0" y2="1" id="SvgjsLinearGradient1003"><stop stop-color="#7f7f7f" offset="0"></stop><stop stop-color="#7f7f7f" offset="0.5"></stop></linearGradient><linearGradient x1="0.1" y1="0" x2="0" y2="1" id="SvgjsLinearGradient1004"><stop stop-color="#aaaaaa" offset="0"></stop><stop stop-color="#aaaaaa" offset="0.6666666666666666"></stop></linearGradient><linearGradient x1="0.1" y1="0" x2="0" y2="1" id="SvgjsLinearGradient1005"><stop stop-color="#d4d4d4" offset="0"></stop><stop stop-color="#d4d4d4" offset="0.8333333333333334"></stop></linearGradient></defs></svg>