<svg id="OBJECTS" xmlns="http://www.w3.org/2000/svg" viewBox="0 0 372.2 372.2"><circle cx="186.1" cy="186.1" r="178.1" fill="none" stroke="#744" stroke-miterlimit="10" stroke-width="16"/><path d="M642.65,479.49c2.79,14.36,32,16.62,47.07,10.59,2.8-1.12,7.94-3.8,9.13-6.18,1.51-3,1.5-8.41,1.76-12.06a334.52,334.52,0,0,0,0-43c-.52-9.92-.91-20-3.23-27.37-2.77-8.72-9.57-17-13.54-26.48a93.59,93.59,0,0,1-5.3-15c-1.74-7.63-1.64-20.3-2.06-29.71-.15-3.43-1.08-7.19-.59-9.72.29-1.46,1.67-2.48,2.07-4.41.66-3.2.1-6.36,0-10-7.63-3.17-22-2.88-26.19,3.23a17.73,17.73,0,0,0,.58,6.18c.6,2,2,2.72,2.36,4.42.55,2.85-.42,7.41-.59,11.18-.55,12.21,1.32,24.52-.29,35.31-1.23,8.17-5.8,15.83-8.83,23.83a86,86,0,0,0-5.59,26.78c-.92,19.38.63,38.86,2.65,54.73C642.39,474.42,642.17,477,642.65,479.49Z" transform="translate(-501.17 -194.26)" fill="#744" fill-rule="evenodd"/><path d="M607.36,364.11h1.46l6.08-20.92,12.77-48.51,14.71,2.19-14.47,48.27-9.48,33.19-22.5,1.58-8.63-32.46-14.1-49.73,17.26-3,11.07,46.93Z" transform="translate(-501.17 -194.26)" fill="#744"/><path d="M736.67,326c-1-1.86-3.24-2.8-6.81-2.8s-7.62,1.42-12.16,4.26v8.87L719,364.9l-16.29,3,1.46-29.55a214.33,214.33,0,0,0-2.68-29.18l14.72-3.16q.84,7.05,1.21,13.74a49.78,49.78,0,0,1,4.13-4.8,36.85,36.85,0,0,1,7.3-5.35,20.15,20.15,0,0,1,10.52-3,11.91,11.91,0,0,1,9.3,4.31q3.76,4.32,3.77,11.74l-.73,13.61,1.33,29.18-16.41,3,1.46-31.37Q738.13,328.79,736.67,326Z" transform="translate(-501.17 -194.26)" fill="#744"/><path d="M778.18,316.14q8.39-10.81,19.64-10.82t17.5,7.3q6.27,7.29,6.27,19.33,0,16.05-8.09,26.68t-20.36,10.64a21.21,21.21,0,0,1-16.72-7.6q-6.63-7.59-6.63-19.15Q769.79,327,778.18,316.14ZM808,338.27q0-17.62-12-17.63-12.52,0-12.52,16.53,0,8.64,3.52,13.5a11,11,0,0,0,9.31,4.86A9.87,9.87,0,0,0,805,351.1Q808,346.66,808,338.27Z" transform="translate(-501.17 -194.26)" fill="#744"/><rect x="655.89" y="267.32" width="16.34" height="31.52" rx="5.16" transform="matrix(1, -0.07, 0.07, 1, -520.02, -145.16)" fill="#744"/><text transform="translate(211.45 223.84)" font-size="43.52" fill="#744" font-family="Acme-Regular, Acme">veritas</text></svg>