<svg xmlns:dc="http://purl.org/dc/elements/1.1/" xmlns:cc="http://creativecommons.org/ns#" xmlns:rdf="http://www.w3.org/1999/02/22-rdf-syntax-ns#" xmlns:svg="http://www.w3.org/2000/svg" xmlns="http://www.w3.org/2000/svg" xmlns:sodipodi="http://sodipodi.sourceforge.net/DTD/sodipodi-0.dtd" xmlns:inkscape="http://www.inkscape.org/namespaces/inkscape" version="1.1" x="0px" y="0px" viewBox="0 0 100 100"><g transform="translate(0,-952.36218)"><path style="text-indent:0;text-transform:none;direction:ltr;block-progression:tb;baseline-shift:baseline;color:#000000;enable-background:accumulate;" d="m 46.90625,5 c -1.540029,0.0473 -2.79381,1.27575 -3.21875,2.09375 -0.42494,0.818 -0.520044,1.44512 -0.59375,2 -0.02346,0.17659 -0.01821,0.27907 -0.03125,0.4375 -0.557042,0.6734 -1.031684,1.47187 -1.0625,2.34375 -3.85e-4,0.0107 2.8e-4,0.02055 0,0.03125 -0.02727,1.04187 0.465167,1.89546 1,2.53125 l 0,16.15625 c -1.624734,1.29365 -3.085767,2.81489 -4.25,4.5 C 37.239257,37.28039 36,39.33384 36,42 l 0,46 c 0,2.5484 1.755026,4.3936 3.59375,5.4375 C 41.432474,94.4814 43.626705,95 46,95 l 8,0 c 2.373295,0 4.567526,-0.5186 6.40625,-1.5625 C 62.244974,92.39365 64,90.5484 64,88 l 0,-46 c 0,-2.66616 -1.239257,-4.71961 -2.75,-6.90625 -1.164233,-1.68511 -2.625266,-3.20635 -4.25,-4.5 L 57,14.4375 c 0.53484,-0.63579 1.027271,-1.48938 1,-2.53125 -2.31e-4,-0.01 3.39e-4,-0.02175 0,-0.03125 -0.03081,-0.87189 -0.505457,-1.67035 -1.0625,-2.34375 -0.01304,-0.15843 -0.0078,-0.26091 -0.03125,-0.4375 -0.07371,-0.55488 -0.168806,-1.182 -0.59375,-2 C 55.887556,6.27575 54.633766,5.04731 53.09375,5 50.96163,4.9998164 48.79508,4.9999749 46.90625,5 z M 49,11 c 0.73317,-2e-5 1.335225,0 2,0 7.78e-4,0.0317 -0.0025,0.04395 0,0.09375 -0.0067,0.277732 0.05118,0.543243 0.09375,0.6875 0.01541,0.0559 0.0666,0.14146 0.09375,0.21875 -0.118686,0.319453 -0.182398,0.65925 -0.1875,1 l 0,19 c -4.63e-4,1.023468 0.563838,2.029395 1.4375,2.5625 1.163462,0.71049 2.74745,2.30549 3.875,3.9375 C 57.44005,40.13201 58,42.04566 58,42 l 0,32 c -0.104072,-0.0054 -0.208428,-0.0054 -0.3125,0 -1.570984,0.08155 -2.926091,1.585307 -2.84427,3.156277 C 54.925051,78.727247 56.429044,80.082094 58,80 l 0,1 c -1.089441,-2.25e-4 -2.248318,0 -3.3125,0 -1.570984,0.08155 -2.926091,1.585307 -2.84427,3.156277 C 51.925051,85.727247 53.429044,87.082094 55,87 l 3,0 0,0.84375 c -0.05199,0.04618 -0.207955,0.1737 -0.5625,0.375 C 56.728411,88.62125 55.435455,89 54,89 l -8,0 C 44.564545,89 43.271589,88.62125 42.5625,88.21875 42.207955,88.017475 42.051989,87.889919 42,87.84375 L 42,42 c 0,0.0457 0.55995,-1.86799 1.6875,-3.5 1.12755,-1.63201 2.711538,-3.22701 3.875,-3.9375 C 48.436162,34.029395 49.000463,33.023468 49,32 l 0,-19 c -0.0051,-0.34075 -0.06881,-0.680547 -0.1875,-1 0.02717,-0.0773 0.07833,-0.16281 0.09375,-0.21875 C 48.967048,11.556213 49,11.322168 49,11.09375 49.0025,11.04395 48.999222,11.0316 49,11 z m -26.0625,3 c -1.121303,0.0262 -2.350532,0.71637 -2.9375,1.46875 -0.586968,0.75238 -0.772061,1.42196 -0.875,1.9375 -0.008,0.0403 0.007,0.05485 0,0.09375 -0.530998,0.56195 -1.079649,1.29978 -1.125,2.40625 -5.91e-4,0.0126 4.83e-4,0.01885 0,0.03125 -0.04909,1.26819 0.483708,1.98787 1,2.53125 L 19,33.375 c -1.540911,1.01359 -2.933884,2.20515 -4.0625,3.53125 C 13.389117,38.72556 12,40.22208 12,43 l 0,35 c 0,1.3676 0.691144,2.53155 1.4375,3.28125 0.746356,0.7498 1.578991,1.21715 2.46875,1.59375 C 17.685767,83.6281 19.75084,84 22,84 l 9,0 c 1.584938,0.02241 3.042726,-1.414904 3.042726,-3 0,-1.585096 -1.457788,-3.022415 -3.042726,-3 l -9,0 c -1.55959,0 -2.981704,-0.33115 -3.75,-0.65625 -0.170732,-0.072 -0.155612,-0.068 -0.25,-0.125 L 18,43 c 0,0.78135 0.410089,-0.93813 1.5,-2.21875 1.089911,-1.28062 2.62048,-2.53697 3.75,-3.0625 C 24.284663,37.244438 24.996728,36.138195 25,35 l 0,-14 c 0.0049,-0.338963 -0.04817,-0.678692 -0.15625,-1 l 2.3125,0 C 27.048172,20.321308 26.99509,20.661037 27,21 l 0,14 c 0.0033,1.138195 0.715337,2.244438 1.75,2.71875 0.538157,0.25039 1.491169,0.90706 2.28125,1.59375 1.186231,1.03115 3.203814,0.889868 4.234761,-0.29654 1.030947,-1.186407 0.889322,-3.203965 -0.297261,-4.23471 C 34.39437,34.28204 33.654036,33.91625 33,33.46875 l 0,-11 c 0.5163,-0.54338 1.049089,-1.26306 1,-2.53125 -3.57e-4,-0.0113 4.6e-4,-0.02005 0,-0.03125 -0.04534,-1.10648 -0.594002,-1.84431 -1.125,-2.40625 -0.007,-0.0389 0.008,-0.05355 0,-0.09375 C 32.772064,16.8907 32.586979,16.22116 32,15.46875 31.413021,14.71634 30.183845,14.0262 29.0625,14 c -2.108793,-1.8e-5 -4.259383,-1.6e-5 -6.125,0 z m 48,0 c -1.121315,0.0262 -2.350508,0.71635 -2.9375,1.46875 -0.586992,0.7524 -0.772061,1.42195 -0.875,1.9375 -0.008,0.0403 0.007,0.05485 0,0.09375 -0.530998,0.56194 -1.079655,1.29977 -1.125,2.40625 -5.91e-4,0.0126 4.82e-4,0.01885 0,0.03125 -0.04909,1.26819 0.4837,1.98787 1,2.53125 l 0,10.96875 c -0.656797,0.43167 -1.368068,0.75922 -1.96875,1.28125 -1.186583,1.030745 -1.328208,3.048303 -0.297261,4.23471 1.030947,1.186408 3.04853,1.32769 4.234761,0.29654 C 69.70907,38.60661 70.6293,38.00755 71.25,37.71875 72.284663,37.244438 72.996728,36.138195 73,35 l 0,-14 c 0.0049,-0.338963 -0.04817,-0.678692 -0.15625,-1 l 2.3125,0 C 75.048172,20.321308 74.99509,20.661037 75,21 l 0,14 c 0.0033,1.138195 0.715337,2.244438 1.75,2.71875 1.12952,0.52553 2.660089,1.78188 3.75,3.0625 C 81.589911,42.06187 82,43.78135 82,43 l 0,20 c -1.089441,-2.25e-4 -2.248318,0 -3.3125,0 -1.570984,0.08155 -2.926091,1.585307 -2.84427,3.156277 C 75.925051,67.727247 77.429044,69.082094 79,69 l 3,0 0,1 c -2.421521,-5.1e-5 -4.916835,0 -7.3125,0 -1.570984,0.08155 -2.926091,1.585307 -2.84427,3.156277 C 71.925051,74.727247 73.429044,76.082094 75,76 l 7,0 0,1.21875 c -0.09439,0.057 -0.07927,0.053 -0.25,0.125 C 80.981704,77.66885 79.55959,78 78,78 l -9,0 c -1.584938,-0.02241 -3.042726,1.414904 -3.042726,3 0,1.585096 1.457788,3.022415 3.042726,3 l 9,0 c 2.24916,0 4.314233,-0.3719 6.09375,-1.125 0.889759,-0.3766 1.722394,-0.84395 2.46875,-1.59375 C 87.308856,80.53155 88,79.3676 88,78 L 88,43 C 88,40.22208 86.610883,38.72556 85.0625,36.90625 83.933884,35.58015 82.540911,34.38859 81,33.375 l 0,-10.90625 c 0.516292,-0.54338 1.049091,-1.26306 1,-2.53125 -3.57e-4,-0.0113 4.6e-4,-0.02005 0,-0.03125 -0.04535,-1.10647 -0.594002,-1.8443 -1.125,-2.40625 -0.007,-0.0389 0.008,-0.05355 0,-0.09375 C 80.772061,16.89071 80.586968,16.22113 80,15.46875 79.413032,14.71637 78.183803,14.02624 77.0625,14 c -2.124083,8.4e-5 -4.29991,-1.11e-4 -6.125,0 z" transform="translate(0,952.36218)" fill="#000000" fill-opacity="1" stroke="none" marker="none" visibility="visible" display="inline" overflow="visible"/></g></svg>