<svg xmlns="http://www.w3.org/2000/svg" viewBox="0 0 512 512"><defs><style>.cls-1{fill:#742f30;}.cls-2{fill:#eac76a;}.cls-3{fill:#778d83;}</style></defs><g id="Layer_2" data-name="Layer 2"><g id="Layer_1-2" data-name="Layer 1"><path class="cls-1" d="M414.72,139.65l86.52-86.53L458.88,10.76,372.35,97.28a88.21,88.21,0,0,0-108.53,12.77L20.11,353.77a42.66,42.66,0,0,0,0,60.34L97.88,491.9a42.67,42.67,0,0,0,60.35,0L402,248.18A88.21,88.21,0,0,0,414.72,139.65Z"/><polygon class="cls-2" points="467.06 75.46 428.55 35.24 451.99 10.76 490.49 50.98 467.06 75.46"/><polyline class="cls-3" points="127.89 314.69 103.1 289.28 244.05 144.81 367.19 271.02 226.23 415.48 143.22 330.4"/><path class="cls-1" d="M512,53.12,458.88,0l-87.8,87.8a95.82,95.82,0,0,0-112.64,16.88l-63.08,63.07L64.25,298.87h0L14.73,348.39a50.26,50.26,0,0,0,0,71.1l77.78,77.79A50,50,0,0,0,128.06,512h0a49.94,49.94,0,0,0,35.55-14.73l49.52-49.51h0L382,278.88h0l25.32-25.32A95.82,95.82,0,0,0,424.2,140.92Zm-21.51,0-15,15-31.6-31.61,15-15ZM152.85,486.52a34.82,34.82,0,0,1-24.79,10.27h0a34.87,34.87,0,0,1-24.8-10.27L25.48,408.73a35.05,35.05,0,0,1,0-49.58L75,309.63l22.44,22.43,10.76-10.75L85.76,298.87,233.12,151.51,360.49,278.88,213.13,426.24l-87.74-87.75-10.76,10.76L202.37,437Zm91-345.76,15-15L386.27,253.1l-15,15ZM397,242.33,269.67,115a80.6,80.6,0,0,1,98.69-11.23l5.12,3.15L433.1,47.3l31.61,31.6-59.62,59.62,3.15,5.12A80.25,80.25,0,0,1,397,242.33Z"/></g></g></svg>