<svg xmlns="http://www.w3.org/2000/svg" viewBox="0 0 28.94 112.5"><defs><style>.cls-1{fill:#742f30;}.cls-2{fill:#fbedd6;}</style></defs><g id="Layer_2" data-name="Layer 2"><g id="Layer_2-2" data-name="Layer 2"><g id="Layer_3" data-name="Layer 3"><path id="Path_9" data-name="Path 9" class="cls-1" d="M19.26,32.29h0V10.17A4.55,4.55,0,0,0,19.74,8v-5C19.74,1.37,19,0,18.06,0H10.89c-1,0-1.7,1.37-1.7,3.06V8a4.55,4.55,0,0,0,.49,2.15V32.48C6.9,36.83,0,44.4,0,71.78v34.4a6.27,6.27,0,0,0,6.21,6.32H22.68a6.27,6.27,0,0,0,6.26-6.27V71.78C28.94,38.54,23.82,41.27,19.26,32.29Z"/><rect id="Rectangle_4" data-name="Rectangle 4" class="cls-2" x="10.22" y="1.75" width="8.16" height="0.82"/><path id="Path_10" data-name="Path 10" class="cls-2" d="M5.19,97.41H23.75A1.21,1.21,0,0,0,25,96.2V62.62a1.21,1.21,0,0,0-1.21-1.2H5.19A1.21,1.21,0,0,0,4,62.62V96.2A1.21,1.21,0,0,0,5.19,97.41Zm.74-32.34a1.21,1.21,0,0,1,1.21-1.21H21.27a1.21,1.21,0,0,1,1.21,1.21v1.21a1.21,1.21,0,0,1-1.21,1.21H7.14a1.21,1.21,0,0,1-1.21-1.21Z"/><path id="Path_11" data-name="Path 11" class="cls-2" d="M11.43,8.92h5.75c.66,0,1.21-.19,1.21-.42s-.55-.4-1.21-.4H11.43c-.66,0-1.21.19-1.21.4S10.77,8.92,11.43,8.92Z"/><rect id="Rectangle_5" data-name="Rectangle 5" class="cls-2" x="10.22" y="13.8" width="8.16" height="12.35" rx="1"/><path id="Path_12" data-name="Path 12" class="cls-2" d="M11.43,29.53h5.75c.66,0,1.21-.23,1.21-.53s-.55-.53-1.21-.53H11.43c-.66,0-1.21.24-1.21.53S10.77,29.53,11.43,29.53Z"/><path id="Path_13" data-name="Path 13" class="cls-2" d="M11.43,11.49h5.75c.66,0,1.21-.27,1.21-.59s-.55-.59-1.21-.59H11.43c-.66,0-1.21.27-1.21.59S10.77,11.49,11.43,11.49Z"/></g></g></g></svg>