<svg xmlns="http://www.w3.org/2000/svg" viewBox="0 0 80 288.56"><defs><style>.cls-1{fill:#aa7e42;stroke:#aa7e42;}.cls-2{fill:#fbedd6;}</style></defs><g id="Layer_2" data-name="Layer 2"><g id="Layer_1-2" data-name="Layer 1"><g id="Layer_2-2" data-name="Layer 2"><g id="Layer_3" data-name="Layer 3"><path id="Path_9" data-name="Path 9" class="cls-1" d="M53.08,83h0V26.5A11.2,11.2,0,0,0,54.4,21V8.32C54.4,4,52.35.5,49.81.5H30.22C27.65.5,25.6,4,25.6,8.32V21a11.2,11.2,0,0,0,1.32,5.5v57C19.33,94.65.5,114,.5,184v87.94a15.48,15.48,0,0,0,5,11.39,17.71,17.71,0,0,0,12.13,4.75H62.43c9.43,0,17.07-7.18,17.07-16V184C79.5,99,65.53,106,53.08,83Z"/><rect id="Rectangle_4" data-name="Rectangle 4" class="cls-2" x="29.45" y="4.83" width="20.17" height="2.03"/><path id="Path_10" data-name="Path 10" class="cls-2" d="M13.76,250.79H66.24a3.23,3.23,0,0,0,3.43-3v-83a3.23,3.23,0,0,0-3.43-3H13.76a3.23,3.23,0,0,0-3.43,3v83A3.23,3.23,0,0,0,13.76,250.79Zm2.08-79.9a3.23,3.23,0,0,1,3.43-3h40a3.22,3.22,0,0,1,3.42,3v3a3.22,3.22,0,0,1-3.42,3h-40a3.23,3.23,0,0,1-3.42-3Z"/><path id="Path_11" data-name="Path 11" class="cls-2" d="M32.44,22.52h14.2c1.64,0,3-.45,3-1s-1.35-1-3-1H32.44c-1.65,0-3,.45-3,1S30.8,22.52,32.44,22.52Z"/><rect id="Rectangle_5" data-name="Rectangle 5" class="cls-2" x="29.45" y="34.6" width="20.17" height="30.51" rx="1"/><path id="Path_12" data-name="Path 12" class="cls-2" d="M32.44,75.91h14.2c1.64,0,3-.57,3-1.32s-1.35-1.31-3-1.31H32.44c-1.64,0-3,.6-3,1.31S30.8,75.91,32.44,75.91Z"/><path id="Path_13" data-name="Path 13" class="cls-2" d="M32.44,28.89h14.2c1.64,0,3-.66,3-1.46S48.28,26,46.64,26H32.44c-1.65,0-3,.66-3,1.44S30.8,28.89,32.44,28.89Z"/></g></g></g></g></svg>