<svg xmlns="http://www.w3.org/2000/svg" viewBox="0 0 17.21 66.92"><defs><style>.cls-1{fill:#aa7e42;}.cls-2{fill:#fbedd6;}</style></defs><g id="Layer_2" data-name="Layer 2"><g id="Layer_1-2" data-name="Layer 1"><g id="Layer_2-2" data-name="Layer 2"><g id="Layer_3" data-name="Layer 3"><path id="Path_9" data-name="Path 9" class="cls-1" d="M11.46,19.21h0V6.05a2.82,2.82,0,0,0,.28-1.28V1.82c0-1-.44-1.82-1-1.82H6.48c-.56,0-1,.81-1,1.82V4.77a2.7,2.7,0,0,0,.29,1.28V19.32C4.1,21.91,0,26.41,0,42.7V63.17a3.72,3.72,0,0,0,3.7,3.75h9.79a3.72,3.72,0,0,0,3.72-3.73V42.7C17.21,22.93,14.17,24.55,11.46,19.21Z"/><rect id="Rectangle_4" data-name="Rectangle 4" class="cls-2" x="6.08" y="1.04" width="4.86" height="0.49"/><path id="Path_10" data-name="Path 10" class="cls-2" d="M3.09,58h11a.72.72,0,0,0,.72-.72h0v-20a.73.73,0,0,0-.72-.72h-11a.72.72,0,0,0-.72.72h0v20A.72.72,0,0,0,3.09,58Zm.44-19.24A.72.72,0,0,1,4.25,38h8.4a.72.72,0,0,1,.72.72h0v.72a.73.73,0,0,1-.72.72H4.25a.72.72,0,0,1-.72-.72h0Z"/><path id="Path_11" data-name="Path 11" class="cls-2" d="M6.8,5.3h3.42c.4,0,.72-.1.72-.24s-.32-.24-.72-.24H6.8c-.4,0-.72.11-.72.24S6.41,5.3,6.8,5.3Z"/><rect id="Rectangle_5" data-name="Rectangle 5" class="cls-2" x="6.08" y="8.21" width="4.86" height="7.35" rx="1"/><path id="Path_12" data-name="Path 12" class="cls-2" d="M6.8,17.57h3.42c.4,0,.72-.14.72-.32s-.32-.32-.72-.32H6.8c-.4,0-.72.15-.72.32S6.41,17.57,6.8,17.57Z"/><path id="Path_13" data-name="Path 13" class="cls-2" d="M6.8,6.84h3.42c.4,0,.72-.16.72-.36s-.32-.34-.72-.34H6.8c-.4,0-.72.16-.72.34S6.41,6.84,6.8,6.84Z"/></g></g></g></g></svg>