<svg xmlns="http://www.w3.org/2000/svg" viewBox="0 0 370.26 612"><defs><style>.cls-1{fill:#778d83;}</style></defs><g id="Layer_2" data-name="Layer 2"><g id="Capa_1" data-name="Capa 1"><path class="cls-1" d="M319.05,318.5c32.54-48.31,51.21-112,51.21-174.77,0-40.79-7.8-96.95-25.21-130.43A24.67,24.67,0,0,0,323.15,0h-276a24.67,24.67,0,0,0-21.9,13.3C7.79,46.78,0,102.93,0,143.73,0,206.49,18.66,270.19,51.2,318.5c27.83,41.32,62.89,68.15,101,78V546.18H107.78a32.91,32.91,0,1,0,0,65.82H262.47a32.92,32.92,0,1,0,0-65.83H218V396.47C256.17,386.65,291.22,359.82,319.05,318.5ZM49.76,157.57c-.23-4.61-.39-9.23-.39-13.84,0-32.93,5.76-70.24,14.08-94.36H306.8c8.32,24.12,14.08,61.44,14.08,94.36,0,4.61-.16,9.23-.39,13.84Z"/></g></g></svg>