<svg xmlns="http://www.w3.org/2000/svg" viewBox="0 0 495.41 512"><defs><style>.cls-1{fill:#eac76a;}</style></defs><g id="Layer_2" data-name="Layer 2"><g id="Layer_1-2" data-name="Layer 1"><path class="cls-1" d="M495.16,469.25a16.71,16.71,0,0,0-19.33-13.53l-49.28,8.69-17.61-99.86a116.5,116.5,0,0,0,78.52-131.08L464.28,102.06A16.72,16.72,0,0,0,445,88.53L247.83,123.29a.53.53,0,0,0-.12,0l-.12,0L50.46,88.53a16.69,16.69,0,0,0-19.33,13.52L8,233.47A116.53,116.53,0,0,0,86.47,364.55L68.86,464.41l-49.27-8.69a16.68,16.68,0,1,0-5.8,32.85l131.42,23.17a16.68,16.68,0,1,0,5.8-32.85l-49.28-8.69,17.6-99.82A116.59,116.59,0,0,0,237.94,274l5.79-32.82a0,0,0,0,0,0,0s0,0,0,0l4-22.46,4,22.47v0a0,0,0,0,0,0,0L257.47,274a116.59,116.59,0,0,0,118.61,96.35l17.61,99.82-49.29,8.69a16.68,16.68,0,1,0,5.8,32.85l131.43-23.17A16.68,16.68,0,0,0,495.16,469.25ZM213.78,219,49.51,190l11.58-65.71,164.28,29Zm67.86,0L270,153.24l164.28-29L445.91,190Z"/><path class="cls-1" d="M247.71,0A16.69,16.69,0,0,0,231,16.68V50a16.69,16.69,0,0,0,33.37,0V16.68A16.69,16.69,0,0,0,247.71,0Z"/><path class="cls-1" d="M192.78,49.37,159.42,16A16.68,16.68,0,1,0,135.83,39.6L169.19,73a16.68,16.68,0,1,0,23.59-23.59Z"/><path class="cls-1" d="M359.58,16A16.66,16.66,0,0,0,336,16L302.64,49.37A16.68,16.68,0,0,0,326.22,73L359.58,39.6A16.67,16.67,0,0,0,359.58,16Z"/></g></g></svg>