<svg xmlns="http://www.w3.org/2000/svg" viewBox="0 0 106.15 90.83"><defs><style>.cls-1{fill:#742f30;}.cls-2{fill:#778d83;}.cls-3{fill:#eac76a;}</style></defs><g id="Layer_2" data-name="Layer 2"><g id="Layer_1-2" data-name="Layer 1"><g id="Group_73" data-name="Group 73"><g id="Group_19" data-name="Group 19"><g id="Group_15" data-name="Group 15"><path id="Path_16" data-name="Path 16" class="cls-1" d="M96.45,23v-18a1.44,1.44,0,0,0,1-1.32V1.43A1.5,1.5,0,0,0,95.87,0h-6.6a1.5,1.5,0,0,0-1.55,1.43V3.75a1.44,1.44,0,0,0,1,1.32V23.19C84.92,25,79,28.88,79,30.38V87.27a3.76,3.76,0,0,0,3.92,3.56h19.32a3.76,3.76,0,0,0,3.92-3.56V30.38C106.14,28.84,100.09,24.73,96.45,23Z"/><path id="Path_17" data-name="Path 17" class="cls-1" d="M89.78,1.54h5.58c.55,0,1-.11,1-.25s-.45-.25-1-.25H89.78c-.56,0-1,.11-1,.25S89.22,1.54,89.78,1.54Z"/><path id="Path_18" data-name="Path 18" class="cls-1" d="M87.3,67.85a18.67,18.67,0,0,1-3.07-1.17A.88.88,0,0,0,83,67a.61.61,0,0,0-.05.12l-1.12,3a1.15,1.15,0,0,0,.54,1.4,22.16,22.16,0,0,0,19.91,0,1.15,1.15,0,0,0,.54-1.4c-.38-1-.75-2-1.12-3a.87.87,0,0,0-1.11-.54l-.13.06a19,19,0,0,1-3.07,1.17c-.53.15-.62,0-.24-.43,2.18-2.27,3.61-6,3.61-10.3a15.16,15.16,0,0,0-3.37-10c-.37-.41-.27-.6.26-.45a20.74,20.74,0,0,1,2.81,1.1.87.87,0,0,0,1.19-.35.5.5,0,0,0,0-.13c.37-1,.75-2,1.12-3a1.16,1.16,0,0,0-.54-1.4,22.16,22.16,0,0,0-19.91,0,1.16,1.16,0,0,0-.54,1.4c.37,1,.75,2,1.12,3a.87.87,0,0,0,1.11.54.75.75,0,0,0,.13-.06A19.5,19.5,0,0,1,87,46.64c.53-.16.62,0,.26.45a15.22,15.22,0,0,0-3.38,10c0,4.26,1.43,8,3.62,10.3C87.92,67.82,87.83,68,87.3,67.85Zm-.2-22.22a2,2,0,0,0-.35.06,21.27,21.27,0,0,0-2.87,1.11L82.8,43.92a.2.2,0,0,1,0-.15,21.12,21.12,0,0,1,19,0,.17.17,0,0,1,0,.15l-1.07,2.88A19.22,19.22,0,0,0,98.9,46c-3.13-1.12-9.5-1.06-11.81-.38ZM97.7,68.81a13.34,13.34,0,0,0,3.15-1.19l1.07,2.88a.17.17,0,0,1,0,.15,21.34,21.34,0,0,1-9.51,2.27h0a21.37,21.37,0,0,1-9.51-2.27.17.17,0,0,1,0-.15l1.07-2.88A19.61,19.61,0,0,0,87,68.81,28.16,28.16,0,0,0,97.7,68.81Z"/></g><g id="Group_18" data-name="Group 18"><g id="Group_16" data-name="Group 16"><path id="Path_19" data-name="Path 19" class="cls-2" d="M58.35,25.54h0V8.38c.84-.16,1.46-3.65,1.46-4.31V1.75c0-.65-.62-1.2-1.46-1.36V0h-9.6V.39c-.84.16-1.46.71-1.46,1.36V4.07c0,.66.62,4.91,1.46,5.08V25.54h0c-1.24,3.7-10.65,29.15-10.65,32V84.37c0,2.86,3,5.18,6.68,5.18H62.31C66,89.55,69,87.23,69,84.37V55.93C69,53.07,59.76,29.49,58.35,25.54Z"/><path id="Path_20" data-name="Path 20" class="cls-2" d="M50.1,8.73V21.49H57V8.12c.6-.14,1-3,1-3.49V2.75a1.22,1.22,0,0,0-1-1.1V1.34H50.1v.31a1.2,1.2,0,0,0-1.05,1.1V4.63C49.05,5.15,49.49,8.6,50.1,8.73Z"/><path id="Path_21" data-name="Path 21" class="cls-2" d="M41.94,76.15H65.16a1,1,0,0,0,1-1V58.54a1,1,0,0,0-1-1H63.55a1.06,1.06,0,0,1-1-1c-.44-5.28-4.28-9.41-9-9.41s-8.53,4.13-9,9.41a1.07,1.07,0,0,1-1,1H41.94a1,1,0,0,0-1,1V75.15A1,1,0,0,0,41.94,76.15Z"/></g><g id="Group_17" data-name="Group 17"><path id="Path_22" data-name="Path 22" class="cls-3" d="M16.8,30.07a7.87,7.87,0,0,1-.32-1.92c1.16-6.79,0-18,0-18a1.39,1.39,0,0,0,.81-1.21V6.6a1.39,1.39,0,0,0-.81-1.21V5.17H8.72v.22a1.4,1.4,0,0,0-.8,1.21V8.92a1.4,1.4,0,0,0,.8,1.21s-1.15,11.22,0,18a7.35,7.35,0,0,1-.32,1.92C6.06,31.38,0,49.83,0,52.69V84.37a5.17,5.17,0,0,0,5.17,5.17H20a5.18,5.18,0,0,0,5.18-5.17V52.69C25.21,49.84,19.14,31.38,16.8,30.07Z"/><path id="Path_23" data-name="Path 23" class="cls-3" d="M2.72,82.29H22.47a1,1,0,0,0,1-1V53.37a1,1,0,0,0-1-1H2.72a1,1,0,0,0-1,1V81.29A1,1,0,0,0,2.72,82.29Zm1.38-26a1,1,0,0,1,1-1h15a1,1,0,0,1,1,1v1.65a1,1,0,0,1-1,1H5.1a1,1,0,0,1-1-1Zm0,19.65a1,1,0,0,1,1-1h15a1,1,0,0,1,1,1v2.53a1,1,0,0,1-1,1H5.1a1,1,0,0,1-1-1Z"/><path id="Path_24" data-name="Path 24" class="cls-3" d="M9.73,7.16h5.5c.55,0,1-.25,1-.56s-.45-.56-1-.56H9.73c-.55,0-1,.25-1,.56S9.18,7.16,9.73,7.16Z"/><path id="Path_25" data-name="Path 25" class="cls-3" d="M14.48,28.46H10.65c-.56,0-1,.33-1,.75s.44.75,1,.75h3.83c.55,0,1-.34,1-.75S15,28.46,14.48,28.46Z"/></g></g></g></g></g></g></svg>